<svg width="580" height="400" xmlns="http://www.w3.org/2000/svg">
 <!-- Created with Method Draw - http://github.com/duopixel/Method-Draw/ -->
 <g>
  <title>background</title>
  <rect fill="#fff" id="canvas_background" height="402" width="582" y="-1" x="-1"/>
  <g display="none" overflow="visible" y="0" x="0" height="100%" width="100%" id="canvasGrid">
   <rect fill="url(#gridpattern)" stroke-width="0" y="0" x="0" height="100%" width="100%"/>
  </g>
 </g>
 <g>
  <title>Layer 1</title>
  <line stroke-linecap="undefined" stroke-linejoin="undefined" id="svg_1" y2="137.05" x2="318.5" y1="149.05" x1="169.5" stroke-width="1.5" stroke="#000" fill="none"/>
  <path d="m133.5,62.049999c-1,0 -24.639511,27.465069 -32,50.000004c-6.279137,19.224258 -8.482635,46.187759 3,67c10.594727,19.202911 36.043655,26.722107 56,30c28.066833,4.610062 60.262238,9.276413 95,5c28.645508,-3.526428 54.053131,-19.038086 57,-28c4.072784,-12.385971 3.752533,-23.51326 0,-36c-2.963135,-9.860016 -11.205627,-17.771729 -19,-25c-7.332306,-6.799789 -24.063202,-15.727547 -34,-9c-4.459274,3.019081 -8.482834,19.560226 -11,41c-2.332108,19.863571 5.82988,49.793991 40,80c54.095184,47.819565 122.810699,60.248581 165,59.999985c28.15976,-0.165924 54.794891,-14.451965 62,-43.999985c4.50116,-18.459137 -6.030487,-43.176239 -24,-57c-28.356964,-21.814713 -67.873993,-30.594513 -103,-31c-32.060303,-0.370102 -82.855225,12.462311 -114,49c-20.3078,23.824219 -23.724274,51.616745 -10,66.999985c24.442169,27.396729 67.711823,29.491272 92,20c22.547028,-8.810883 33.77478,-29.825745 28,-48.999985c-6.806,-22.59819 -37.859222,-42.288605 -83,-52c-42.321411,-9.104858 -79.08197,-6.475052 -121,21c-19.071854,12.50058 -24.84787,24.605499 -22,31c5.47345,12.289871 27.935745,14.62529 58,14.999985c24.018951,0.299347 47.689178,-6.381714 56,-21.999985c6.17865,-11.611374 5.982849,-33.506439 -25,-48c-21.319809,-9.973267 -57.348465,-9.727997 -86,1c-22.651016,8.481216 -32,23 -37,31l-1,4" id="svg_2" stroke-width="1.5" stroke="#000" fill="none"/>
 </g>
</svg>